# xmcd
#
# Track frame offsets:
#	150
#	17790
#	35432
#
# Disc length: 488 seconds
#
# Revision: 0
# Processed by: cddbd v1.5.2PL0 Copyright (c) Steve Scherf et al.
# Submitted via: dBpowerAMP V4.0
#
DISCID=1b01e603
DTITLE=3 Of Hearts - CD single
DYEAR=2001
DGENRE=Country
TTITLE0=01 Arizona Rain
TTITLE1=02 Arizona Rain
TTITLE2=03 Arizona Rain (suggested hook)
EXTD=
EXTT0=
EXTT1=
EXTT2=
PLAYORDER=
